<svg width="50" height="30" viewBox="0 0 50 30" fill="none" xmlns="http://www.w3.org/2000/svg">
<path d="M44.5058 19.8928L44.4787 19.8676C44.0518 19.4736 42.7441 18.201 42.3032 17.6448C41.7855 16.9509 41.9049 16.4962 42.2929 15.8149C42.7831 14.9539 43.7653 13.6332 44.8048 12.2348C48.1343 7.75707 50.2839 4.65724 49.8414 2.4554L49.603 1.27932L37.307 1.28466C37.2639 1.40063 36.6223 4.21932 33.9146 9.01898C31.9512 12.4991 30.6634 13.5924 30.2098 13.7854L30.1396 13.7641C29.992 13.5817 29.7341 13.0896 29.628 11.8213C29.5174 10.4926 29.6155 8.88394 29.7104 7.3283C29.8215 5.50411 29.9172 3.92863 29.6879 2.80139L29.3145 0.96499C28.8632 0.892893 27.2111 0.255455 22.6078 0.207009C18.6226 0.166191 17.4519 0.74183 16.877 1.24919L14.9754 2.92727L17.379 3.73599C18.2938 4.04384 18.5974 4.39899 18.8465 6.15947C19.0091 7.30694 19.0941 9.23527 18.9186 10.9568C18.6665 13.4253 18.0619 13.8846 18.0306 13.909C17.9264 13.8736 17.0433 13.4871 15.5102 10.2458C14.4467 7.99778 13.5144 5.33855 12.833 3.39686C12.0533 1.17327 12.1937 1.64668 11.7981 0.596108L-0.0976562 0.595727L0.672151 2.587C3.88146 10.8966 6.82603 17.3858 10.7666 22.0466C15.1203 27.196 20.5311 29.8923 27.8195 29.8923H29.2843V28.4274C29.2843 27.058 29.3976 26.0719 29.6406 25.3242C29.789 24.8687 29.9862 24.4922 30.1934 24.0974C30.5009 23.516 30.8015 23.2669 30.9655 23.2299C31.1143 23.1959 31.3759 23.305 31.6659 23.5213C32.4982 24.142 33.1589 24.9576 33.8586 25.8212C34.8679 27.0675 35.9116 28.3557 37.5676 29.1991C38.4724 29.66 40.1311 29.8927 41.0439 29.8927C41.2854 29.8927 49.8918 29.8923 49.9024 29.8923L49.8395 28.3672C49.7457 26.0867 47.9508 23.2352 44.5058 19.8928ZM41.1008 26.9626H41.0771C40.4477 26.9729 39.2464 26.7665 38.897 26.5887C37.7961 26.028 37.0267 25.0777 36.1352 23.9776C35.3528 23.0113 34.5437 22.0122 33.4172 21.1726C32.5062 20.4932 31.6788 20.2945 31.0219 20.2945C30.7595 20.2945 30.5237 20.3261 30.3216 20.3719C29.559 20.5436 28.4684 21.0921 27.6013 22.7321C27.3568 23.1986 27.0794 23.727 26.8548 24.4182C26.6194 25.1414 26.4729 25.9452 26.4031 26.9229C20.9107 26.6109 16.6249 24.438 13.0039 20.1552C9.63747 16.1731 6.98892 10.6032 4.18397 3.52428C4.38691 3.52428 9.47229 3.52504 9.77251 3.52504C9.86444 3.78329 9.96363 4.06635 10.0689 4.36618C10.8032 6.46084 11.8092 9.32911 12.9944 11.7751C14.6916 15.2778 16.2415 16.8399 18.0195 16.8399C18.9072 16.8399 19.7033 16.4638 20.3217 15.7515C21.2033 14.7365 21.7152 13.061 21.8869 10.6292C22.0223 8.71151 21.8964 6.80149 21.7476 5.74901C21.6248 4.88307 21.4497 3.97403 21.0225 3.15959C22.8432 3.07757 25.2812 3.20727 26.8258 3.42891C26.9661 4.19338 26.8746 5.69599 26.7861 7.14977C26.5721 10.6616 26.3512 14.2856 28.2101 15.9812C28.537 16.2795 28.8838 16.4393 28.8937 16.4458L29.8398 16.7361C30.2048 16.6236 32.3193 17.6963 36.3232 10.7089C37.6061 8.47004 38.8005 5.89016 39.4437 4.2052C40.9352 4.20215 46.0168 4.20787 46.6138 4.20863C45.7681 6.06983 43.7638 8.72448 42.4538 10.4865C41.3117 12.0223 40.3256 13.3487 39.7469 14.3649C38.6719 16.2528 38.8528 17.9355 39.9724 19.4198L39.9899 19.4427C40.6148 20.238 42.1578 21.7105 42.4779 22.0073C44.7965 24.2583 45.9138 25.8754 46.4456 26.9622H41.1008V26.9626Z" fill="#2E2F22"/>
</svg>
